<?xml version="1.0" encoding="UTF-8" standalone="no"?>
<svg
   xmlns:dc="http://purl.org/dc/elements/1.1/"
   xmlns:cc="http://creativecommons.org/ns#"
   xmlns:rdf="http://www.w3.org/1999/02/22-rdf-syntax-ns#"
   xmlns:svg="http://www.w3.org/2000/svg"
   xmlns="http://www.w3.org/2000/svg"
   xmlns:sodipodi="http://sodipodi.sourceforge.net/DTD/sodipodi-0.dtd"
   xmlns:inkscape="http://www.inkscape.org/namespaces/inkscape"
   sodipodi:docname="logo.svg"
   inkscape:version="0.92.3 (2405546, 2018-03-11)"
   id="svg6"
   version="1.1"
   viewBox="0 0 57.636333 98.660942"
   height="98.660942mm"
   width="57.636333mm">
   <linearGradient id="my-cool-gradient" x2="0" y2="1">
    <stop offset="0%" stop-color="#4F6457" />
    <stop offset="50%" stop-color="#D9B44A" />
    <stop offset="100%" stop-color="#4F6457" />
  </linearGradient>
  <metadata
     id="metadata89">
    <rdf:RDF>
      <cc:Work
         rdf:about="">
        <dc:format>image/svg+xml</dc:format>
        <dc:type
           rdf:resource="http://purl.org/dc/dcmitype/StillImage" />
        <dc:title></dc:title>
      </cc:Work>
    </rdf:RDF>
  </metadata>
  <defs
     id="defs2" />
  <sodipodi:namedview
     inkscape:window-maximized="0"
     inkscape:window-y="0"
     inkscape:window-x="0"
     inkscape:window-height="743"
     inkscape:window-width="1366"
     showgrid="false"
     inkscape:current-layer="layer1"
     inkscape:document-units="mm"
     inkscape:cy="95.353771"
     inkscape:cx="111.77594"
     inkscape:zoom="0.35"
     inkscape:pageshadow="2"
     inkscape:pageopacity="0.0"
     borderopacity="1.0"
     bordercolor="#666666"
     pagecolor="#ffffff"
     id="base"
     fit-margin-top="0"
     fit-margin-left="0"
     fit-margin-right="0"
     fit-margin-bottom="0" />
  <g
     id="layer1"
     inkscape:groupmode="layer"
     inkscape:label="Layer 1"
     transform="translate(-76.259284,-75.401413)">
    <g
       style="stroke:none"
       transform="matrix(0.26458333,0,0,0.26458333,76.363626,75.567212)"
       id="g837">
      <path
         style="fill:none;stroke:none;stroke-width:1px;stroke-linecap:butt;stroke-linejoin:miter;stroke-opacity:1"
         d="M -0.18336825,196.12315 39.941631,322.61891 c 0,0 17.00212,49.64619 87.730929,49.64619"
         id="path7189"
         inkscape:connector-curvature="0" />
      <path
         style="fill:none;stroke:none;stroke-width:1px;stroke-linecap:butt;stroke-linejoin:miter;stroke-opacity:1"
         d="m 127.67256,372.2651 c 87.73093,0 89.77119,-87.73093 89.77119,-87.73093 L 210.6429,67.587128 c 0,0 -15.64195,-16.32203 -25.16313,2.04026 l 3.40042,106.773302 c 0,0 -10.20127,10.20127 -17.00212,0 L 169.15773,28.142218 c 0,0 -14.28178,-10.88136 -24.48305,0.68008 l 3.40043,146.898312 c 0,0 -8.16102,19.72246 -21.76272,0.68008 L 126.99248,7.7396783 c 0,0 -8.8411,-18.3622903 -26.52331,-0.68009 l 4.7606,167.9809317 c 0,0 -4.7606,21.08263 -19.042379,-0.68008 L 83.467051,43.784168 c 0,0 -8.8411,-19.72246 -24.48305,3.40042"
         id="path7191"
         inkscape:connector-curvature="0" />
      <path
         style="fill:none;stroke:none;stroke-width:1px;stroke-linecap:butt;stroke-linejoin:miter;stroke-opacity:1"
         d="m 58.984001,47.184588 v 0 L 62.384431,243.049 c 0,0 2.72034,74.12924 69.368639,73.44915 0,0 56.44704,-6.80085 46.24576,-68.00847 0,0 -11.56144,-45.56568 -62.56779,-16.32204 0,0 -30.603819,45.56568 18.36229,33.32415 0,0 0.68008,-16.32203 6.80084,-16.32203"
         id="path7193"
         inkscape:connector-curvature="0" />
      <path
         style="fill:none;stroke:none;stroke-width:1px;stroke-linecap:butt;stroke-linejoin:miter;stroke-opacity:1"
         d="m 140.59417,249.16976 c 21.76271,-3.40042 8.8411,24.48305 8.8411,24.48305 0,0 -16.32203,27.20339 -44.88559,7.48093 0,0 -27.883469,-44.2055 8.16102,-66.6483 0,0 42.16525,-28.56356 72.76907,13.60169 0,0 46.24576,89.09111 -41.48517,108.81356 0,0 -53.726699,6.80085 -78.889829,-32.64406 L 47.422561,266.85196 21.579341,180.4812 c 0,0 -24.4830483,-13.60169 -21.76270925,15.64195"
         id="path7195"
         inkscape:connector-curvature="0" />
      <path
         style="fill:url(#my-cool-gradient) #4F6457;opacity:1;vector-effect:none;fill-opacity:1;stroke:none;stroke-width:1;stroke-linecap:butt;stroke-linejoin:miter;stroke-miterlimit:4;stroke-dasharray:none;stroke-dashoffset:0;stroke-opacity:1"
         d="m 108.81679,370.13093 c -25.538979,-3.72921 -46.169089,-15.24017 -59.629439,-33.27137 -2.22278,-2.97759 -4.96477,-7.24294 -6.09331,-9.47856 -1.12854,-2.23563 -11.23499,-33.00456 -22.458775,-68.3754 C 0.68161775,196.12332 0.23557075,194.59421 0.55220575,190.15834 1.1689297,181.51837 4.8942517,177.59634 11.778232,178.33957 c 1.96459,0.21211 4.792148,0.87387 6.283462,1.47057 3.170457,1.26857 1.057222,-4.80549 17.667647,50.78199 l 10.92986,36.57724 8.88785,18.81556 c 4.88832,10.34855 9.84355,20.20807 11.01161,21.91004 3.0156,4.394 10.98268,12.19327 15.77683,15.44452 14.21812,9.64232 31.672389,14.51332 52.005619,14.51332 9.20138,0 10.63828,-0.17424 17.10456,-2.07415 19.84429,-5.8306 33.70261,-16.34805 40.72852,-30.90996 5.01874,-10.40187 5.76528,-14.11952 5.73582,-28.56356 -0.0224,-10.97242 -0.22295,-13.08759 -1.93473,-20.40254 -2.0767,-8.87436 -5.98384,-20.42538 -8.75967,-25.89697 -3.79365,-7.47788 -13.46451,-16.67047 -22.03946,-20.94953 -7.10858,-3.54731 -13.11974,-4.68336 -22.94679,-4.33673 -7.29335,0.25726 -9.92442,0.65104 -14.66824,2.19532 -10.53352,3.42904 -19.70347,8.94258 -25.13423,15.11225 -3.346299,3.80161 -7.074199,11.32577 -8.123969,16.39695 -2.21884,10.71869 0.29767,24.69971 6.850459,38.05919 l 2.75591,5.61862 6.49138,3.22248 6.49138,3.22249 h 7.54481 c 6.89556,0 7.88029,-0.1647 11.44324,-1.91392 7.96523,-3.91049 13.72806,-10.19877 16.10226,-17.57044 2.99024,-9.28439 2.47409,-16.25286 -1.41772,-19.14046 -2.24558,-1.66615 -7.747,-2.2674 -10.98093,-1.20011 -3.01355,0.99456 -4.8286,4.45248 -5.9602,11.35498 l -0.7958,4.85422 -3.76685,0.75648 c -5.88853,1.18259 -14.3433,0.96757 -17.09335,-0.43471 -3.69486,-1.88406 -4.9229,-4.09477 -4.90029,-8.82147 0.0236,-4.93481 1.90365,-10.85207 5.75657,-18.11824 2.82491,-5.32743 2.85816,-5.35927 8.61657,-8.25179 19.33144,-9.7104 35.2686,-8.8949 46.28996,2.36863 5.79196,5.91923 9.13275,13.1763 10.17951,22.11259 3.36794,28.75245 -10.57541,50.44927 -37.97227,59.08747 -6.96599,2.19637 -15.2314,2.36612 -24.27929,0.49865 -26.026129,-5.37178 -44.164139,-26.27649 -50.754479,-58.49631 -1.65735,-8.10273 -1.67496,-8.68422 -3.62544,-119.7646 -1.38846,-79.073272 -1.44045,-88.241542 -0.50893,-89.740572 0.57064,-0.91827 2.4812,-3.11328 4.24571,-4.87778 3.89501,-3.89501 7.6956,-5.30449 10.81698,-4.01157 2.9875,1.23746 6.843,5.74922 6.84542,8.01059 0.001,1.02755 0.62047,30.60481 1.37639,65.727232 l 1.3744,63.85896 2.44373,3.32902 c 5.06569,6.90085 10.63241,8.6205 14.317839,4.42303 4.18242,-4.76351 4.08804,1.23218 1.43022,-90.854402 l -2.42618,-84.0604797 2.40026,-2.19706 c 5.77737,-5.28826997 12.79355,-6.48549 17.60057,-3.00331 1.47335,1.06729 3.23357,2.78718 3.91159,3.82198 1.18052,1.80169 1.21142,5.4615197 0.72903,86.3280297 l -0.50375,84.446562 3.39514,3.48567 c 6.02564,6.18629 11.94235,6.43664 16.84189,0.71264 1.34491,-1.57122 2.63578,-3.61579 2.86862,-4.54349 0.23284,-0.92771 -0.3429,-34.44709 -1.27942,-74.48752 -1.55944,-66.672692 -1.6115,-72.909062 -0.6185,-74.086992 1.64113,-1.94677 6.17844,-3.78276 9.38979,-3.7995 2.87383,-0.015 9.15182,1.96591 11.26988,3.55598 1.0284,0.77204 1.2574,7.61993 2.50743,74.978872 l 1.37567,74.12924 2.45592,2.2867 c 2.31229,2.15298 2.68666,2.27002 6.40151,2.00131 2.81268,-0.20345 4.74436,-0.81399 6.72743,-2.12633 l 2.78184,-1.84094 -0.0441,-6.96122 c -0.0242,-3.82866 -0.74005,-27.92483 -1.59071,-53.54702 -1.01026,-30.429192 -1.31995,-47.057532 -0.89297,-47.945972 0.97441,-2.02751 3.98284,-5.09401 6.06442,-6.18148 3.69351,-1.92958 10.16216,-0.43576 14.43249,3.33291 l 2.45712,2.16848 3.41973,108.813562 c 3.6922,117.48319 3.6822,113.09302 0.28878,126.83581 -2.25098,9.1161 -4.66771,15.56552 -8.91945,23.80296 -12.34891,23.92512 -32.7832,38.38741 -60.10094,42.53619 -7.99843,1.21474 -27.24797,1.18415 -35.74645,-0.0568 z"
         id="path7223"
         inkscape:connector-curvature="0" />
    </g>
  </g>
</svg>
